<svg xmlns="http://www.w3.org/2000/svg" width="64" height="64" viewBox="0 0 64 64">
  <style>
    path {
      fill: black;
    }
    @media (prefers-color-scheme: dark) {
      path { fill: white; }
    }
  </style>
  <g>
    <path d="M31.996.1A31.9 31.9 0 0 0 .1 32.002 31.9 31.9 0 0 0 32.002 63.9 31.9 31.9 0 0 0 63.9 32H46.814A15 2.431 0 0 1 32 34.13a15 2.431 0 0 1-14.996-2.42H17v-4.333h.023a15 2.431 0 0 0-.023.064 15 2.431 0 0 0 15 2.43 15 2.431 0 0 0 15-2.432 15 2.431 0 0 0-.023-.062H47v4.334h-.002a15 2.431 0 0 1-.182.287l17.084-.004A31.9 31.9 0 0 0 31.996.1Zm.002 18.181a15 2.431 0 0 1 14.979 2.367H47V24.982h-.002A15 2.431 0 0 1 32 27.402a15 2.431 0 0 1-14.996-2.42H17v-4.334h.023a15 2.431 0 0 1 14.975-2.367ZM17 34.107h.023a15 2.431 0 0 0-.023.065 15 2.431 0 0 0 15 2.43 15 2.431 0 0 0 15-2.432 15 2.431 0 0 0-.023-.063H47v4.334h-.002A15 2.431 0 0 1 32 40.861a15 2.431 0 0 1-14.996-2.42H17v-4.27zm0 6.73h.023a15 2.431 0 0 0-.023.065 15 2.431 0 0 0 15 2.43A15 2.431 0 0 0 47 40.9a15 2.431 0 0 0-.023-.062H47v4.334h-.002A15 2.431 0 0 1 32 47.592a15 2.431 0 0 1-14.996-2.42H17v-4.27z"/>
  </g>
</svg>
